<svg xmlns="http://www.w3.org/2000/svg" width="198" height="44" fill="#1e1e1e" xmlns:v="https://vecta.io/nano"><path d="M66.444 32.332c-1.517 0-2.824-.244-3.923-.732-1.081-.505-2.075-1.264-2.981-2.275l2.667-2.641c.593.68 1.247 1.212 1.961 1.595.732.366 1.578.549 2.537.549.872 0 1.543-.157 2.013-.471.488-.314.732-.75.732-1.308 0-.506-.157-.915-.471-1.229s-.732-.584-1.255-.811c-.506-.227-1.072-.445-1.7-.654l-1.831-.706a8.79 8.79 0 0 1-1.7-1.02c-.506-.418-.915-.933-1.229-1.543-.314-.628-.471-1.412-.471-2.353 0-1.133.27-2.109.811-2.929.558-.819 1.325-1.438 2.301-1.857.976-.436 2.101-.654 3.373-.654 1.29 0 2.467.227 3.53.68 1.081.453 1.97 1.072 2.667 1.857l-2.667 2.641c-.558-.575-1.124-1.002-1.7-1.281-.558-.279-1.194-.418-1.909-.418s-1.281.139-1.7.418a1.27 1.27 0 0 0-.628 1.151c0 .471.157.854.471 1.151.314.279.724.523 1.229.732l1.7.628a18.63 18.63 0 0 1 1.857.732 7.02 7.02 0 0 1 1.674 1.072c.523.418.941.959 1.255 1.621.314.645.471 1.447.471 2.406 0 1.761-.627 3.147-1.883 4.158-1.255.994-2.99 1.49-5.204 1.49zm14.567-.026c-1.168 0-2.214-.288-3.138-.863-.907-.575-1.63-1.36-2.17-2.354-.523-.994-.785-2.127-.785-3.399s.261-2.406.785-3.399c.54-.994 1.264-1.778 2.17-2.354.924-.575 1.97-.863 3.138-.863.854 0 1.621.166 2.301.497.697.331 1.264.793 1.7 1.386.436.575.68 1.238.732 1.987v5.491c-.052.75-.296 1.421-.732 2.013-.418.575-.976 1.029-1.674 1.36s-1.473.497-2.327.497zm.811-3.609c.854 0 1.543-.279 2.066-.837.523-.575.784-1.299.784-2.17 0-.593-.122-1.116-.366-1.569a2.4 2.4 0 0 0-.994-1.046c-.418-.262-.907-.392-1.464-.392a2.84 2.84 0 0 0-1.491.392 2.8 2.8 0 0 0-1.02 1.046c-.244.453-.366.976-.366 1.569 0 .575.122 1.09.366 1.543a2.74 2.74 0 0 0 1.02 1.072 2.79 2.79 0 0 0 1.464.392zm2.693 3.347v-3.426l.601-3.086-.601-3.086v-3.112h3.922v12.709h-3.922zm12.048.261c-1.168 0-2.214-.288-3.138-.863-.906-.575-1.63-1.36-2.17-2.354-.523-.994-.784-2.127-.784-3.399s.261-2.406.784-3.399c.54-.994 1.264-1.778 2.17-2.354.924-.575 1.97-.863 3.138-.863.854 0 1.621.166 2.301.497.697.331 1.264.793 1.7 1.386.436.575.68 1.238.732 1.987v5.491a3.77 3.77 0 0 1-.732 2.013c-.419.575-.976 1.029-1.674 1.36s-1.473.497-2.327.497zm.811-3.609c.854 0 1.543-.279 2.066-.837.523-.575.785-1.299.785-2.17 0-.593-.122-1.116-.366-1.569a2.4 2.4 0 0 0-.994-1.046c-.418-.262-.906-.392-1.464-.392a2.84 2.84 0 0 0-1.49.392 2.8 2.8 0 0 0-1.02 1.046c-.244.453-.366.976-.366 1.569 0 .575.122 1.09.366 1.543a2.74 2.74 0 0 0 1.02 1.072 2.79 2.79 0 0 0 1.464.392zm2.693 3.347v-3.426l.601-3.086-.601-3.086v-3.112h3.922v12.709h-3.922zm12.649.288c-1.516 0-2.824-.244-3.922-.732-1.081-.505-2.075-1.264-2.981-2.275l2.667-2.641c.593.68 1.247 1.212 1.961 1.595.732.366 1.578.549 2.537.549.871 0 1.543-.157 2.013-.471.488-.314.733-.75.733-1.308 0-.506-.157-.915-.471-1.229s-.732-.584-1.255-.811c-.506-.227-1.072-.445-1.7-.654l-1.831-.706a8.79 8.79 0 0 1-1.699-1.02c-.506-.418-.916-.933-1.229-1.543-.314-.628-.471-1.412-.471-2.353 0-1.133.27-2.109.811-2.929.557-.819 1.325-1.438 2.301-1.857.976-.436 2.101-.654 3.373-.654 1.29 0 2.467.227 3.53.68 1.081.453 1.97 1.072 2.668 1.857l-2.668 2.641c-.558-.575-1.124-1.002-1.699-1.281-.558-.279-1.195-.418-1.909-.418s-1.282.139-1.7.418c-.418.262-.628.645-.628 1.151 0 .471.157.854.471 1.151.314.279.724.523 1.229.732l1.7.628a18.66 18.66 0 0 1 1.856.732 7.01 7.01 0 0 1 1.674 1.072c.523.418.941.959 1.255 1.621.314.645.471 1.447.471 2.406 0 1.761-.628 3.147-1.883 4.158-1.255.994-2.99 1.49-5.204 1.49zm12.84-.288v-3.19h4.341c.802 0 1.429-.235 1.883-.706a2.39 2.39 0 0 0 .68-1.726c0-.471-.105-.889-.314-1.255a2.23 2.23 0 0 0-.889-.863c-.366-.209-.82-.314-1.36-.314h-4.341v-3.112h4.001c.68 0 1.229-.166 1.647-.497.419-.349.628-.872.628-1.569 0-.68-.209-1.186-.628-1.517-.418-.349-.967-.523-1.647-.523h-4.001v-3.19h4.785c1.186 0 2.188.218 3.008.654.836.436 1.473 1.02 1.909 1.752s.653 1.543.653 2.432c0 1.133-.366 2.092-1.098 2.876S133 22.62 131.57 22.916l.105-1.386c1.552.296 2.746.898 3.583 1.804.854.906 1.281 2.022 1.281 3.347 0 1.011-.253 1.926-.758 2.746-.489.802-1.203 1.438-2.145 1.909-.924.471-2.039.706-3.347.706h-4.733zm-3.138 0V13.582h4.053v18.462h-4.053zm22.505.288c-1.307 0-2.493-.288-3.556-.863-1.046-.593-1.874-1.395-2.484-2.406s-.916-2.144-.916-3.399.305-2.38.916-3.373a6.58 6.58 0 0 1 2.484-2.354c1.046-.593 2.231-.889 3.556-.889s2.511.288 3.557.863 1.874 1.369 2.484 2.38c.61.994.915 2.118.915 3.373s-.305 2.388-.915 3.399-1.438 1.813-2.484 2.406c-1.046.575-2.232.863-3.557.863zm0-3.635c.575 0 1.081-.122 1.517-.366a2.57 2.57 0 0 0 .994-1.072c.244-.471.366-1.002.366-1.595s-.122-1.107-.366-1.543c-.244-.453-.584-.802-1.02-1.046-.419-.262-.916-.392-1.491-.392a2.84 2.84 0 0 0-1.49.392c-.436.244-.776.593-1.02 1.046s-.366.976-.366 1.569a3.36 3.36 0 0 0 .366 1.569 2.74 2.74 0 0 0 1.02 1.072c.435.244.932.366 1.49.366zm15.067 3.635c-1.308 0-2.493-.288-3.556-.863-1.046-.593-1.874-1.395-2.485-2.406s-.915-2.144-.915-3.399.305-2.38.915-3.373a6.59 6.59 0 0 1 2.485-2.354c1.046-.593 2.231-.889 3.556-.889s2.51.288 3.556.863 1.874 1.369 2.485 2.38c.61.994.915 2.118.915 3.373s-.305 2.388-.915 3.399a6.72 6.72 0 0 1-2.485 2.406c-1.046.575-2.231.863-3.556.863zm0-3.635c.575 0 1.081-.122 1.517-.366.435-.262.767-.619.993-1.072.244-.471.366-1.002.366-1.595s-.122-1.107-.366-1.543c-.244-.453-.584-.802-1.02-1.046-.418-.262-.915-.392-1.49-.392-.558 0-1.055.131-1.491.392-.435.244-.775.593-1.019 1.046s-.367.976-.367 1.569c0 .575.122 1.098.367 1.569.244.453.584.811 1.019 1.072a3 3 0 0 0 1.491.366zm8.948 3.347V19.335h4.001v12.709h-4.001zm8.132 0v-7.427c0-.645-.2-1.142-.601-1.491-.384-.366-.863-.549-1.438-.549-.401 0-.759.087-1.073.262-.313.157-.566.383-.758.68-.174.296-.261.662-.261 1.098l-1.543-.68c0-1.011.218-1.874.653-2.589a4.33 4.33 0 0 1 1.779-1.674c.749-.401 1.595-.601 2.536-.601.889 0 1.682.201 2.38.601a4.48 4.48 0 0 1 1.7 1.674c.418.715.627 1.569.627 2.563v8.133h-4.001zm8.133 0v-7.427c0-.645-.201-1.142-.602-1.491-.383-.366-.863-.549-1.438-.549a2.17 2.17 0 0 0-1.072.262 1.89 1.89 0 0 0-.758.68c-.175.296-.262.662-.262 1.098l-2.301-.314c.035-1.081.288-2.005.758-2.772a4.98 4.98 0 0 1 1.909-1.804c.802-.436 1.7-.654 2.694-.654.976 0 1.839.209 2.588.628.768.401 1.369.985 1.805 1.752.453.75.68 1.656.68 2.72v7.871h-4.001zm6.565 0V19.335h4v12.709h-4zm2.013-14.461c-.627 0-1.15-.209-1.569-.628-.401-.436-.601-.959-.601-1.569 0-.628.2-1.151.601-1.569.419-.418.942-.628 1.569-.628s1.142.209 1.543.628.601.941.601 1.569c0 .61-.2 1.133-.601 1.569-.401.418-.915.628-1.543.628zM43.999 10.41v24.179c0 1.566-.113 2.634-.563 3.842C42.197 41.686 39.049 44 35.36 44h-4.14c-3.381 0-6.108-2.415-6.801-5.636a14.43 14.43 0 0 1-.215-4.998c.141-1.031.533-2.02 1.197-2.821 2.09-2.521 5.488-2.079 7.698-2.415l-.001-.001a6.16 6.16 0 0 0 5.447-6.119c0-3.481-2.975-6.533-6.89-6.119.05.784-.013 1.589-.198 2.394-.287 1.251-.842 2.371-1.591 3.314-.051.065-.116.094-.177.094-.131 0-.244-.126-.166-.285a8.32 8.32 0 0 0 .823-3.62 8.35 8.35 0 0 0-8.347-8.345c-3.559 0-6.598 2.229-7.797 5.367a6.17 6.17 0 0 1 3.663 5.371c.011.224-.29.255-.345.052h-.001c-.747-2.46-3.006-4.282-5.665-4.381-3.511-.13-6.398 2.677-6.398 6.158a6.16 6.16 0 0 0 5.448 6.119l-.001.001c2.209.335 5.606-.106 7.696 2.415.664.801 1.056 1.79 1.197 2.821.3 2.19.001 4-.214 4.998C18.887 41.585 16.162 44 12.78 44H8.639C4.94 44 1.787 41.675.554 38.407.112 37.208 0 36.143 0 34.589V10.41c0-.888 0-2.524.181-3.532.637-3.074 2.907-5.549 5.863-6.48C7.27.055 8.029 0 9.799 0h24.4c1.771 0 2.531.055 3.76.399a8.66 8.66 0 0 1 5.76 6.055l.008.032.088.381c.091.504.137 1.167.16 1.814l.022 1.729z"/></svg>